<svg width="53" height="53" fill="none" xmlns="http://www.w3.org/2000/svg"><path d="M0 9.11A9.11 9.11 0 019.11 0h34.78A9.11 9.11 0 0153 9.11v34.78A9.11 9.11 0 0143.89 53H9.11A9.11 9.11 0 010 43.89V9.11z" fill="#262626"/><g clip-path="url(#clip0_18_4)"><path d="M27.427 17.997h-2.85l-1.096 3.99h-3.793l-.482 2.347h3.617l-.899 3.333h-3.442L18 30.013h3.267l-1.096 3.99h2.872l1.096-3.99h3.617l-1.096 3.99h2.85l1.096-3.99h3.706l.482-2.346h-3.551l.92-3.333h3.355L36 21.988h-3.201l1.096-3.99h-2.872l-1.096 3.99H26.33l1.096-3.99zm-2.653 9.669l.921-3.333h3.596l-.9 3.333h-3.617z" fill="#fff"/></g><defs><clipPath id="clip0_18_4"><path fill="#fff" transform="translate(18 17)" d="M0 0h18v18H0z"/></clipPath></defs></svg>