<svg width="53" height="53" fill="none" xmlns="http://www.w3.org/2000/svg"><path d="M0 9.11A9.11 9.11 0 019.11 0h34.78A9.11 9.11 0 0153 9.11v34.78A9.11 9.11 0 0143.89 53H9.11A9.11 9.11 0 010 43.89V9.11z" fill="#262626"/><g clip-path="url(#clip0_18_6)"><path d="M17 26c0 4.992 4.008 9 9 9s9-4.008 9-9-4.008-9-9-9-9 4.008-9 9zm3.504 0h10.991c0 3.048-2.4 5.448-5.496 5.448-3.096 0-5.496-2.4-5.496-5.448z" fill="#fff"/></g><defs><clipPath id="clip0_18_6"><path fill="#fff" transform="translate(17 17)" d="M0 0h18v18H0z"/></clipPath></defs></svg>