<svg width="17" height="19" fill="none" xmlns="http://www.w3.org/2000/svg"><g clip-path="url(#clip0_1_504)" fill-rule="evenodd" clip-rule="evenodd" fill="#000"><path d="M9.347 1.826C10.59.197 12.314.189 12.314.189s.257 1.532-.976 3.007C10.02 4.771 8.525 4.514 8.525 4.514s-.281-1.239.822-2.688z"/><path d="M8.682 5.405c.639 0 1.824-.874 3.367-.874 2.655 0 3.7 1.881 3.7 1.881s-2.044 1.04-2.044 3.564c0 2.847 2.545 3.828 2.545 3.828s-1.779 4.986-4.182 4.986c-1.104 0-1.961-.74-3.124-.74s-2.361.767-3.127.767c-2.195 0-4.967-4.729-4.967-8.53 0-3.803 2.347-5.704 4.548-5.704 1.43 0 2.54.822 3.284.822z"/></g><defs><clipPath id="clip0_1_504"><path fill="#fff" d="M0 0h17v19H0z"/></clipPath></defs></svg>