<svg width="1179" height="255" fill="none" xmlns="http://www.w3.org/2000/svg"><path d="M236.402 141.815c0 38.02-19.567 58.891-71.539 58.891H0V0h159.676c50.367 0 69.302 20.802 69.302 52.004 0 21.892-10.906 34.189-28.556 39.32v1.756c20.035 4.71 35.98 16.691 35.98 48.735zm-78.396-79.654c0-11.314-6.252-16.306-19.152-16.306H65.361v32.538h73.493c12.86 0 19.152-4.988 19.152-16.232zm6.569 74.633c0-12.477-5.824-18.555-21.74-18.555H65.361v37.034h77.474c15.883 0 21.74-6.042 21.74-18.479zM460.488 0h64.46v33.263h-64.46V0zm.557 50.936h63.339v149.77h-63.339V50.936zM679.95 67.294V0h63.339v200.706h-62.182v-16.148h-1.686c-13.553 14.137-32.966 22.315-58.363 22.315-53.113 0-87.16-27.929-87.16-79.909 0-52.01 34.047-79.907 87.16-79.907 25.397 0 44.001 8.005 57.213 20.237h1.679zm2.033 59.67c0-21.656-13.665-35.655-41.832-35.655-27.396 0-40.392 13.063-40.392 35.655 0 22.594 12.996 35.659 40.392 35.659 28.167 0 41.832-13.997 41.832-35.659zm496.177 13.586h-145.11c2.84 18.955 15.38 27.827 39.84 27.827 27.88 0 34.33-11.089 36.01-14.105h67.89c-1.72 25.435-22.1 52.601-103.9 52.601-72.17 0-106.116-29.94-106.116-81.086 0-51.041 33.946-81.05 106.116-81.05 72.16 0 106.11 30.01 106.11 81.087 0 3.914-.28 10.464-.84 14.726zm-143.78-35.625h77.01c-4.56-14.794-16.89-21.692-38.5-21.692-21.62 0-33.95 6.897-38.51 21.692zm-75.83-53.989v140.515c0 39.158-13.064 63.549-101.173 63.549-85.307 0-99.144-27.165-101.529-54.333h68.878c1.082 6.93 5.428 15.837 32.651 15.837 32.686 0 37.834-8.907 37.834-25.053v-22.763h-1.681c-12.017 12.581-31.914 19.818-56.435 19.818-51.851 0-85.167-23.734-85.167-70.721 0-47.027 33.316-70.728 85.167-70.728 24.521 0 45.223 7.276 57.591 21.07h1.681V50.936h62.183zm-62.078 66.849c0-16.704-12.436-27.862-40.079-27.862-26.134 0-38.603 10.533-38.603 27.862 0 17.324 12.469 27.861 38.603 27.861 27.643 0 40.079-11.159 40.079-27.861zm-444.947-9.195c-21.069-38.686-62.954-63.456-107.414-63.222-44.462-.231-86.34 24.538-107.407 63.222l56.441 30.316c22.351-39.99 79.568-40.012 101.938 0l56.442-30.316z" fill="#000"/></svg>