<svg width="37" height="42" fill="none" xmlns="http://www.w3.org/2000/svg"><path fill-rule="evenodd" clip-rule="evenodd" d="M20.344 4.036C23.046.436 26.801.418 26.801.418s.559 3.385-2.125 6.647c-2.866 3.482-6.122 2.912-6.122 2.912s-.612-2.738 1.79-5.94z" fill="#000"/><path fill-rule="evenodd" clip-rule="evenodd" d="M18.897 11.947c1.39 0 3.969-1.931 7.326-1.931 5.78 0 8.053 4.158 8.053 4.158s-4.447 2.3-4.447 7.878c0 6.293 5.54 8.462 5.54 8.462s-3.873 11.021-9.102 11.021c-2.403 0-4.27-1.637-6.801-1.637-2.532 0-5.139 1.698-6.806 1.698-4.776.001-10.81-10.454-10.81-18.858 0-8.405 5.108-12.607 9.898-12.607 3.113 0 5.53 1.816 7.149 1.816z" fill="#000"/></svg>