<svg width="617" height="295" fill="none" xmlns="http://www.w3.org/2000/svg"><g opacity=".209" fill="#fff"><path d="M579.728 82.068l-12.05 57.565h35.003l12.242-58.904c.765-4.016 1.339-8.606 1.339-12.622 0-20.08-12.433-33.085-31.56-33.085-17.789 0-30.795 8.797-37.681 25.435h-.957L558.88.025h-35.004l-29.457 139.608h35.004l12.051-56.8c3.634-13.578 12.241-20.654 25.248-20.654 8.99 0 13.772 4.59 13.772 13.196 0 1.913-.192 3.824-.766 6.693z"/><path d="M429.234 71.168c0-10.71 8.225-17.787 20.275-17.787 9.181 0 14.345 3.826 14.345 10.71 0 10.71-7.842 17.786-20.084 17.786-9.564 0-14.536-3.634-14.536-10.71zm-25.823 79.939c0-5.737 4.782-9.37 12.816-9.37h27.735c13.007 0 17.597 1.529 17.597 5.546 0 8.605-13.198 13.96-33.473 13.96-15.876 0-24.675-3.442-24.675-10.136zm17.598 28.688c45.142 0 71.729-15.491 71.729-41.883 0-15.49-13.007-24.48-35.578-24.48h-39.403c-6.312 0-10.137-2.295-10.137-5.737 0-4.398 5.355-8.415 12.815-10.136 6.312 1.721 13.58 2.677 21.614 2.677 34.813.191 56.809-13.769 56.809-36.144 0-9.563-5.547-17.213-15.302-22.376l35.195-34.615.191-.957h-34.238l-8.99 32.32c-6.887-2.294-15.112-3.442-24.293-3.442-35.003 0-56.999 14.152-56.999 36.146 0 9.562 5.547 17.403 15.302 22.375l-.192.956c-19.127 3.06-31.177 13.961-31.177 27.922 0 10.327 8.225 17.212 21.614 17.977l-.192 1.148c-15.302 1.147-23.718 7.075-23.718 17.02 0 12.813 17.98 21.229 44.95 21.229zM302.86 141.927c17.598 0 30.222-8.031 38.638-25.244h.957l-4.974 22.95h34.047l21.614-102.316h-35.003l-12.242 57.756c-3.825 13.005-12.432 19.698-25.056 19.698-8.99 0-13.773-4.782-13.773-13.196 0-1.913.191-3.825.765-6.693l12.051-57.565H284.88l-12.433 59.286c-.956 4.398-1.53 8.797-1.53 12.622 0 19.89 12.624 32.702 31.943 32.702zM185.882 96.603c0-21.037 12.433-37.102 28.691-37.102 12.433 0 20.275 8.033 20.275 20.846 0 20.846-12.433 37.101-28.691 37.101-12.624 0-20.275-7.84-20.275-20.845zm18.744 45.324c38.829 0 65.416-24.479 65.416-60.241 0-28.113-21.614-46.664-53.939-46.664-38.829 0-65.416 24.48-65.416 60.242 0 28.112 21.614 46.663 53.939 46.663z"/><path d="M41.61 110.372l17.215-81.087H80.25c24.101 0 36.724 9.945 36.724 29.26 0 31.174-20.084 51.827-50.306 51.827H41.61zM.486 139.633h64.46c52.984 0 87.987-32.129 87.987-80.706 0-35.762-26.396-58.902-67.33-58.902h-55.66L.486 139.633z"/></g><path d="M513.114 248.431c0-19.507 13.581-35.381 30.413-35.381 15.111 0 23.335 11.665 19.701 28.113l-.765 4.016c-.383 1.339-.574 2.677-1.148 3.825v.383c-4.591 12.24-15.492 20.462-28.499 20.462-12.05 0-19.702-8.222-19.702-21.418zM581.591 153l-12.816 60.624h-.765c-3.634-16.255-16.258-25.627-34.429-25.627-32.134 0-55.852 26.775-55.852 63.302 0 26.392 15.302 43.603 39.02 43.603 17.597 0 30.986-8.413 39.402-24.861h.765l-4.782 22.567h35.003L616.595 153h-35.004z" fill="#fff"/><path d="M388.565 262.009c0-5.356 4.4-9.371 12.816-11.858l29.265-8.223-2.104 9.753c-6.312 10.328-19.51 18.168-30.413 18.168-5.93 0-9.564-2.868-9.564-7.84zm-6.694 32.893c17.789 0 33.282-9.37 43.993-26.199h.956l-.383 2.485c-1.339 12.813 9.373 23.333 24.101 23.333 7.651 0 15.684-1.531 22.379-4.4l4.973-24.67c-3.06 1.339-6.503 1.913-9.181 1.913-5.547 0-7.842-4.399-6.121-11.857l4.973-21.611c6.695-28.305-10.711-45.899-44.949-45.899-27.544 0-47.053 10.519-60.251 32.512l26.587 10.518c7.842-13.005 18.171-19.889 30.03-19.889 11.285 0 17.023 6.12 15.11 15.873l-48.009 10.901c-22.953 5.356-33.857 15.299-33.857 30.982 0 15.108 12.434 26.008 29.649 26.008zm-103.789-64.448c4.782-11.284 13.963-18.552 25.248-18.552 12.05 0 18.745 6.503 19.701 18.552h-44.949zm72.875 29.069l-28.117-8.224c-5.356 12.431-14.537 18.742-27.352 18.742-13.58 0-21.232-7.077-21.232-19.89 0-1.338.001-2.868.192-4.207h79.378c.765-3.824.957-7.841.957-11.857 0-27.731-20.275-46.09-51.07-46.09-37.107 0-63.887 26.009-63.887 62.154 0 26.392 20.85 44.751 51.071 44.751 29.839 0 48.01-10.9 60.06-35.379zm-107.642-39.014l6.503-30.408c-3.252-1.148-8.224-2.104-12.815-2.104-4.782 0-10.137 1.148-14.154 2.678-11.668 4.781-19.319 14.916-26.396 36.336h-.765l7.651-36.719h-34.048l-21.614 102.316h35.003l8.035-37.866c5.738-21.228 22.187-35.955 40.741-35.955 4.017 0 8.034.574 11.859 1.722zM67.153 209.99l6.12-28.687h34.43c10.711 0 16.258 3.826 16.258 11.093 0 11.283-8.225 17.594-23.144 17.594H67.153zm-11.477 54.313l6.12-29.26h35.196c12.815 0 19.127 4.016 19.127 11.857 0 11.474-8.416 17.403-25.057 17.403H55.676zM14.55 292.608h79.954c36.151 0 58.147-15.874 58.147-41.692 0-15.682-12.05-27.347-29.073-28.112l.191-.765c22.188-1.53 36.916-15.682 36.916-35.572 0-19.316-17.789-33.467-42.272-33.467H44.009L14.55 292.608zm486.822-208.9c4.782-11.283 13.963-18.551 25.248-18.551 12.05 0 18.746 6.503 19.702 18.551h-44.95zm72.877 29.069l-28.119-8.223c-5.356 12.431-14.537 18.742-27.352 18.742-13.58 0-21.231-7.077-21.231-19.89 0-1.339 0-2.869.191-4.207h79.38c.765-3.825.956-7.841.956-11.858 0-27.73-20.276-46.09-51.071-46.09-37.107 0-63.886 26.01-63.886 62.155 0 26.392 20.85 44.751 51.071 44.751 29.839 0 48.01-10.9 60.061-35.38z" fill="#fff"/><path d="M378.774 6.254l-29.456 139.608h35.003l5.93-28.495 21.422-16.256 22.188 44.751h36.534l-32.708-62.919 52.027-39.397h-43.802l-47.819 36.91 15.684-74.202h-35.003zM260.111 115.263c0-5.355 4.4-9.37 12.816-11.857l29.265-8.224-2.104 9.754c-6.312 10.327-19.51 18.168-30.413 18.168-5.93 0-9.564-2.869-9.564-7.841zm-6.694 32.894c17.789 0 33.282-9.371 43.993-26.2h.956l-.382 2.486c-1.339 12.813 9.372 23.332 24.1 23.332 7.652 0 15.685-1.531 22.38-4.399l4.974-24.67c-3.06 1.338-6.504 1.912-9.182 1.912-5.547 0-7.841-4.398-6.12-11.857l4.973-21.61c6.695-28.305-10.712-45.9-44.951-45.9-27.544 0-47.053 10.519-60.251 32.513l26.587 10.518c7.842-13.005 18.171-19.89 30.03-19.89 11.285 0 17.024 6.12 15.111 15.874l-48.01 10.9c-22.953 5.356-33.856 15.299-33.856 30.982 0 15.109 12.433 26.009 29.648 26.009zM242.661 6.254h-53.175l-52.983 96.961h-.574l-10.712-96.96H73.382L43.925 145.861h32.9L98.248 43.355h1.147l12.816 102.507h30.795l56.043-102.507h.765L178.2 145.862h35.005L242.661 6.254z" fill="#fff"/></svg>