<svg width="142" height="68" fill="none" xmlns="http://www.w3.org/2000/svg"><path d="M28.91 54.014c0 4.543-2.332 7.038-8.525 7.038H.737V37.066h19.03c6.002 0 8.259 2.486 8.259 6.215 0 2.616-1.3 4.086-3.404 4.699v.21c2.388.563 4.288 1.994 4.288 5.824zm-9.343-9.52c0-1.351-.745-1.948-2.282-1.948H8.526v3.889h8.759c1.532 0 2.282-.596 2.282-1.94zm.783 8.92c0-1.491-.694-2.218-2.59-2.218H8.525v4.426h9.233c1.893 0 2.591-.722 2.591-2.208zm35.266-16.348h7.682v3.975h-7.682v-3.975zm.066 6.087h7.549v17.899h-7.549V43.153zm26.088 1.955v-8.042h7.549v23.986h-7.41v-1.93h-.202c-1.615 1.69-3.928 2.667-6.955 2.667-6.33 0-10.387-3.338-10.387-9.55 0-6.215 4.057-9.55 10.387-9.55 3.027 0 5.244.957 6.818 2.42h.2zm.243 7.131c0-2.588-1.629-4.26-4.986-4.26-3.265 0-4.814 1.56-4.814 4.26 0 2.7 1.55 4.262 4.814 4.262 3.357 0 4.986-1.673 4.986-4.262zm59.131 1.624h-17.293c.339 2.265 1.833 3.325 4.748 3.325 3.323 0 4.091-1.325 4.292-1.686h8.091c-.205 3.04-2.635 6.287-12.383 6.287-8.601 0-12.646-3.578-12.646-9.69 0-6.1 4.045-9.686 12.646-9.686 8.6 0 12.646 3.586 12.646 9.69 0 .468-.033 1.25-.101 1.76zm-17.134-4.258h9.177c-.543-1.768-2.013-2.592-4.588-2.592-2.577 0-4.046.824-4.589 2.592zm-9.037-6.452v16.793c0 4.68-1.557 7.594-12.058 7.594-10.166 0-11.815-3.246-12.1-6.493h8.21c.128.828.646 1.893 3.89 1.893 3.896 0 4.509-1.065 4.509-2.994v-2.72h-.2c-1.432 1.503-3.804 2.368-6.726 2.368-6.18 0-10.15-2.837-10.15-8.452 0-5.62 3.97-8.452 10.15-8.452 2.922 0 5.39.87 6.864 2.518h.2v-2.055h7.411zm-7.399 7.99c0-1.997-1.482-3.33-4.776-3.33-3.115 0-4.6 1.258-4.6 3.33 0 2.07 1.485 3.329 4.6 3.329 3.294 0 4.776-1.334 4.776-3.33zm-53.026-1.1c-2.511-4.623-7.503-7.583-12.802-7.555-5.298-.028-10.29 2.932-12.8 7.555l6.727 3.623c2.663-4.779 9.482-4.781 12.148 0l6.727-3.623zm-7.163-21.579c-6.6-11.837-23.48-11.83-30.073 0L.662 19.496C6.877 8.052 19.232.725 32.348.794 45.464.724 57.82 8.052 64.035 19.496l-16.65 8.968z" fill="#FFFEFF"/></svg>